HIERARCHY
ROOT hip
{
	OFFSET 0.000000 0.000000 0.000000 
	CHANNELS 6 Xposition Yposition Zposition Zrotation Yrotation Xrotation
	JOINT abdomen
	{
		OFFSET 0.000000 20.688101 -0.731520 
		CHANNELS 3 Zrotation Xrotation Yrotation
		JOINT chest
		{
			OFFSET 0.000000 11.704300 -0.487680 
			CHANNELS 3 Zrotation Xrotation Yrotation
			JOINT neck
			{
				OFFSET 0.000000 22.189400 -2.194560 
				CHANNELS 3 Zrotation Xrotation Yrotation
				JOINT head
				{
					OFFSET -0.243840 7.071330 1.219200 
					CHANNELS 3 Zrotation Xrotation Yrotation
					End Site
					{
						OFFSET 1.000000 0.000000 0.000000 
					}
				}
			}
			JOINT rCollar
			{
				OFFSET -2.682240 19.263399 -4.876800 
				CHANNELS 3 Zrotation Xrotation Yrotation
				JOINT rShldr
				{
					OFFSET -8.778240 -1.950730 1.463040 
					CHANNELS 3 Zrotation Xrotation Yrotation
					JOINT rForeArm
					{
						OFFSET -28.174200 -1.711500 0.487680 
						CHANNELS 3 Zrotation Xrotation Yrotation
						JOINT rHand
						{
							OFFSET -22.587900 0.773209 7.071360 
							CHANNELS 3 Zrotation Xrotation Yrotation
							End Site
							{
								OFFSET -1.692250 -0.517670 -0.607171 
							}
						}
					}
				}
			}
			JOINT lCollar
			{
				OFFSET 2.682240 19.263399 -4.876800 
				CHANNELS 3 Zrotation Xrotation Yrotation
				JOINT lShldr
				{
					OFFSET 8.778240 -1.950730 1.463040 
					CHANNELS 3 Zrotation Xrotation Yrotation
					JOINT lForeArm
					{
						OFFSET 28.174200 -1.711500 0.487680 
						CHANNELS 3 Zrotation Xrotation Yrotation
						JOINT lHand
						{
							OFFSET 22.587900 0.773209 7.071360 
							CHANNELS 3 Zrotation Xrotation Yrotation
							End Site
							{
								OFFSET 1.692250 -0.517670 -0.607171 
							}
						}
					}
				}
			}
		}
	}
	JOINT rButtock
	{
		OFFSET -8.778240 4.350840 1.219200 
		CHANNELS 3 Zrotation Xrotation Yrotation
		JOINT rThigh
		{
			OFFSET 0.000000 -1.706870 -2.194560 
			CHANNELS 3 Zrotation Xrotation Yrotation
			JOINT rShin
			{
				OFFSET 0.000000 -36.819901 0.731520 
				CHANNELS 3 Zrotation Xrotation Yrotation
				JOINT rFoot
				{
					OFFSET 0.731520 -45.110401 -5.120640 
					CHANNELS 3 Zrotation Xrotation Yrotation
					End Site
					{
						OFFSET -1.122100 -3.699640 12.103000 
					}
				}
			}
		}
	}
	JOINT lButtock
	{
		OFFSET 8.778240 4.350840 1.219200 
		CHANNELS 3 Zrotation Xrotation Yrotation
		JOINT lThigh
		{
			OFFSET 0.000000 -1.706870 -2.194560 
			CHANNELS 3 Zrotation Xrotation Yrotation
			JOINT lShin
			{
				OFFSET 0.000000 -36.819901 0.731520 
				CHANNELS 3 Zrotation Xrotation Yrotation
				JOINT lFoot
				{
					OFFSET -0.731520 -45.110401 -5.120640 
					CHANNELS 3 Zrotation Xrotation Yrotation
					End Site
					{
						OFFSET 1.122100 -3.699640 12.103000 
					}
				}
			}
		}
	}
}
MOTION
Frames: 12
Frame Time: 0.008333
52.248501 84.084000 -78.683701 -3.021800 -18.323099 3.998100 2.330620 4.290880 6.069490 3.875630 -2.614230 1.875950 -13.851000 4.763810 -6.190360 21.399200 4.350160 -10.443000 0.000000 0.000000 0.000000 74.270203 5.652420 5.359670 -16.229300 -8.902300 30.157801 -0.201592 -12.687300 -1.813110 0.000000 0.000000 0.000000 -81.190102 2.042440 -2.302630 11.619800 -5.185500 -20.876600 0.355312 16.710699 -2.418220 -0.000000 0.000000 -0.000000 -5.123100 -19.042200 -2.021050 -0.223681 35.817200 0.703148 -5.121310 -13.543400 -14.834300 0.000000 0.000000 0.000000 2.618880 -19.715401 -5.586170 0.261500 36.316799 -0.668119 1.560690 -16.056299 3.506310 
52.331001 84.068497 -78.758797 -3.048100 -19.077499 4.116700 2.260940 4.388370 5.940070 3.949810 -2.622220 1.840660 -13.884500 4.744620 -6.154770 21.549200 4.785820 -10.464300 0.000000 0.000000 0.000000 74.389999 5.449800 5.311430 -16.129601 -8.808210 29.946800 -0.199429 -12.620700 -1.803280 0.000000 0.000000 0.000000 -81.274300 2.427310 -2.394610 11.663500 -5.215460 -20.960501 0.343970 16.453400 -2.378790 -0.000000 0.000000 -0.000000 -5.206400 -19.362801 -1.746390 -0.224714 35.841499 0.697706 -4.943630 -13.380400 -14.420000 0.000000 0.000000 0.000000 2.571830 -19.730200 -5.324820 0.261245 36.306000 -0.669225 1.664500 -16.093100 3.791710 
52.432301 84.055603 -78.822098 -3.008200 -19.822201 4.170000 2.148440 4.543720 5.758290 4.034460 -2.649660 1.791210 -13.922200 4.717270 -6.156420 21.612700 5.195830 -10.548800 0.000000 0.000000 -0.000000 74.480797 5.287660 5.264700 -16.037600 -8.722030 29.752199 -0.196489 -12.529600 -1.789830 0.000000 0.000000 -0.000000 -81.349602 2.781370 -2.472400 11.725000 -5.257810 -21.078501 0.328877 16.108200 -2.326000 -0.000000 0.000000 -0.000000 -5.367650 -19.682100 -1.573820 -0.226144 35.895500 0.693353 -4.757040 -13.193700 -13.987400 0.000000 0.000000 0.000000 2.467920 -19.741301 -5.079620 0.261302 36.312901 -0.670718 1.768800 -16.140800 4.075090 
52.558102 84.043404 -78.889900 -2.911400 -20.474100 4.174400 2.008040 4.738790 5.545150 4.126830 -2.693550 1.733460 -13.975400 4.700390 -6.178440 21.637199 5.580130 -10.667000 0.000000 0.000000 -0.000000 74.551102 5.148540 5.217380 -15.951500 -8.642180 29.570101 -0.192760 -12.412500 -1.772550 0.000000 0.000000 -0.000000 -81.415298 3.123560 -2.539320 11.801400 -5.310570 -21.225700 0.311227 15.688900 -2.262190 -0.000000 0.000000 -0.000000 -5.575490 -20.007900 -1.458550 -0.227848 35.968601 0.689559 -4.564280 -12.989700 -13.538100 0.000000 0.000000 0.000000 2.331920 -19.753099 -4.837290 0.261598 36.333099 -0.672476 1.872720 -16.198000 4.354090 
52.697701 84.026703 -78.978500 -2.849300 -21.047701 4.221000 1.862740 4.932500 5.323730 4.217660 -2.732310 1.672980 -14.024700 4.700940 -6.198340 21.648001 5.931770 -10.779900 0.000000 -0.000000 -0.000000 74.609802 5.035510 5.155760 -15.879600 -8.575880 29.418501 -0.189831 -12.319000 -1.758780 0.000000 -0.000000 -0.000000 -81.470703 3.444320 -2.609790 11.879500 -5.364630 -21.376499 0.295857 15.304900 -2.204080 -0.000000 0.000000 -0.000000 -5.794830 -20.340900 -1.360670 -0.229825 36.058998 0.686409 -4.374990 -12.792300 -13.083400 0.000000 0.000000 0.000000 2.183510 -19.767599 -4.608580 0.262038 36.361900 -0.674388 1.972820 -16.266300 4.618920 
52.852402 84.011803 -79.046501 -2.662300 -21.614500 4.175800 1.734660 5.083690 5.117160 4.297780 -2.744340 1.615370 -14.050600 4.725880 -6.193640 21.669600 6.244040 -10.848200 0.000000 -0.000000 -0.000000 74.665901 4.951580 5.066150 -15.830300 -8.530410 29.315001 -0.189200 -12.299200 -1.755860 0.000000 -0.000000 -0.000000 -81.514503 3.734080 -2.698230 11.946200 -5.410950 -21.505699 0.286727 15.065700 -2.168050 -0.000000 0.000000 -0.000000 -5.989590 -20.681400 -1.239950 -0.232078 36.164799 0.683994 -4.197850 -12.625400 -12.634700 0.000000 0.000000 0.000000 2.042420 -19.786699 -4.404220 0.262524 36.394798 -0.676348 2.065620 -16.347200 4.859770 
52.870998 83.992699 -79.117798 -2.970400 -22.588301 4.366800 1.638050 5.173050 4.938060 4.358020 -2.719470 1.563730 -14.058600 4.826540 -6.153600 21.745701 6.454120 -10.852400 0.000000 -0.000000 -0.000000 74.718903 4.929980 4.937430 -15.815400 -8.516590 29.284100 -0.192780 -12.415000 -1.772910 0.000000 -0.000000 -0.000000 -81.550697 3.972050 -2.814240 11.996400 -5.445960 -21.602900 0.286259 15.050200 -2.165750 -0.000000 0.000000 -0.000000 -6.143150 -21.032801 -1.081120 -0.234670 36.288300 0.682474 -4.034040 -12.497900 -12.191500 0.000000 0.000000 0.000000 1.919920 -19.813000 -4.227540 0.263079 36.432800 -0.678261 2.142730 -16.444799 5.052930 
53.031700 83.945702 -79.118797 -2.710100 -23.093399 4.334700 1.557630 5.225250 4.771960 4.405630 -2.670690 1.514540 -14.055700 4.982750 -6.091810 21.849800 6.586130 -10.816000 0.000000 -0.000000 -0.000000 74.765099 4.958290 4.779340 -15.827500 -8.527790 29.309601 -0.199419 -12.623600 -1.803680 0.000000 -0.000000 -0.000000 -81.578300 4.169420 -2.948190 12.037700 -5.474930 -21.682899 0.291455 15.183500 -2.185850 -0.000000 0.000000 -0.000000 -6.276460 -21.393600 -0.906918 -0.237585 36.429600 0.681760 -3.878220 -12.396500 -11.748800 0.000000 0.000000 0.000000 1.803570 -19.844999 -4.072640 0.263738 36.477798 -0.680210 2.208490 -16.557100 5.210680 
53.201500 83.904800 -79.129898 -2.556800 -23.525700 4.338400 1.470750 5.265120 4.601400 4.456100 -2.611120 1.463480 -14.024800 5.094150 -6.022240 21.900299 6.763900 -10.764400 0.000000 -0.000000 -0.000000 74.809196 4.971060 4.609530 -15.846300 -8.545160 29.348900 -0.205800 -12.817600 -1.832360 0.000000 -0.000000 -0.000000 -81.588997 4.364490 -3.085640 12.076300 -5.502130 -21.757500 0.297785 15.344200 -2.210120 -0.000000 0.000000 -0.000000 -6.409520 -21.757601 -0.733961 -0.240708 36.583199 0.681572 -3.728720 -12.312000 -11.310000 0.000000 0.000000 0.000000 1.677390 -19.878099 -3.936420 0.264430 36.525799 -0.682342 2.278660 -16.676901 5.377240 
53.358898 83.860802 -79.165199 -2.378200 -24.125299 4.296500 1.355150 5.317470 4.408860 4.524910 -2.553920 1.406230 -13.948000 5.060350 -5.958810 21.815300 7.111260 -10.723500 0.000000 -0.000000 -0.000000 74.854797 4.902790 4.445700 -15.851300 -8.549900 29.359501 -0.208209 -12.889700 -1.843040 0.000000 -0.000000 -0.000000 -81.574402 4.595590 -3.212220 12.118200 -5.531800 -21.838800 0.300428 15.410700 -2.220180 -0.000000 0.000000 -0.000000 -6.562810 -22.118500 -0.579054 -0.243922 36.743301 0.681627 -3.584180 -12.235100 -10.878800 0.000000 0.000000 0.000000 1.525350 -19.908100 -3.815820 0.265081 36.573101 -0.684806 2.369280 -16.796600 5.596890 
53.495300 83.825203 -79.227997 -2.217100 -24.816299 4.250200 1.197570 5.379610 4.183070 4.622310 -2.497800 1.339640 -13.784400 4.741720 -5.911250 21.491301 7.813200 -10.717500 0.000000 -0.000000 -0.000000 74.898300 4.729190 4.287440 -15.836200 -8.535990 29.327499 -0.204455 -12.778400 -1.826550 0.000000 -0.000000 -0.000000 -81.531700 4.890890 -3.307930 12.169500 -5.568180 -21.938200 0.296857 15.323000 -2.206890 -0.000000 0.000000 -0.000000 -6.758760 -22.476400 -0.457714 -0.247253 36.913601 0.682057 -3.442530 -12.181700 -10.440900 0.000000 0.000000 0.000000 1.320360 -19.935801 -3.743020 0.265689 36.621498 -0.687960 2.496430 -16.921801 5.910360 
53.597599 83.795197 -79.280098 -2.169600 -25.442801 4.232200 1.012460 5.441360 3.935540 4.738050 -2.437330 1.266690 -13.554700 4.229350 -5.870550 20.999901 8.752980 -10.729100 0.000000 -0.000000 -0.000000 74.938202 4.487400 4.127140 -15.811900 -8.513750 29.276501 -0.197037 -12.551700 -1.793060 0.000000 -0.000000 -0.000000 -81.465698 5.223970 -3.385890 12.225300 -5.607950 -22.046600 0.290147 15.155000 -2.181500 -0.000000 0.000000 -0.000000 -6.981440 -22.834101 -0.357527 -0.250752 37.095299 0.682951 -3.304250 -12.150700 -9.999300 0.000000 0.000000 0.000000 1.078480 -19.962999 -3.708710 0.266291 36.672100 -0.691620 2.648480 -17.053301 6.284640 
